<svg width="262" height="262" viewBox="0 0 262 262" fill="none" xmlns="http://www.w3.org/2000/svg">
<circle cx="131" cy="131" r="130" stroke="#33E602" stroke-width="2"/>
<circle cx="131" cy="131" r="119" stroke="#33E602" stroke-width="2"/>
<circle r="16" transform="matrix(-1 0 0 1 131 131)" stroke="#33E602" stroke-width="2"/>
<path d="M114.7 54V52H113.509L112.942 53.0469L114.7 54ZM122.85 54H124.85V52H122.85V54ZM122.85 78.5H120.85V80.5H122.85V78.5ZM128.25 78.5H130.25V76.5H128.25V78.5ZM128.25 82.4V84.4H130.25V82.4H128.25ZM122.85 82.4V80.4H120.85V82.4H122.85ZM122.85 89V91H124.85V89H122.85ZM118.65 89H116.65V91H118.65V89ZM118.65 82.4H120.65V80.4H118.65V82.4ZM102.45 82.4H100.45V84.4H102.45V82.4ZM102.45 76.6L100.692 75.6469L100.45 76.0928V76.6H102.45ZM106.05 77.9L104.292 76.9456L104.05 77.392V77.9H106.05ZM106.05 78.5H104.05V80.5H106.05V78.5ZM118.65 78.5V80.5H120.65V78.5H118.65ZM118.65 55.8H120.65V53.8H118.65V55.8ZM118.05 55.8V53.8H116.86L116.292 54.8456L118.05 55.8ZM114.7 56H122.85V52H114.7V56ZM120.85 54V78.5H124.85V54H120.85ZM122.85 80.5H128.25V76.5H122.85V80.5ZM126.25 78.5V82.4H130.25V78.5H126.25ZM128.25 80.4H122.85V84.4H128.25V80.4ZM120.85 82.4V89H124.85V82.4H120.85ZM122.85 87H118.65V91H122.85V87ZM120.65 89V82.4H116.65V89H120.65ZM118.65 80.4H102.45V84.4H118.65V80.4ZM104.45 82.4V76.6H100.45V82.4H104.45ZM104.208 77.5531L116.458 54.9531L112.942 53.0469L100.692 75.6469L104.208 77.5531ZM104.05 77.9V78.5H108.05V77.9H104.05ZM106.05 80.5H118.65V76.5H106.05V80.5ZM120.65 78.5V55.8H116.65V78.5H120.65ZM118.65 53.8H118.05V57.8H118.65V53.8ZM116.292 54.8456L104.292 76.9456L107.808 78.8544L119.808 56.7544L116.292 54.8456ZM134.515 72.5H132.515V74.5H134.515V72.5ZM134.515 54V52H132.515V54H134.515ZM156.415 54H158.415V52H156.415V54ZM156.415 57.9V59.9H158.415V57.9H156.415ZM138.615 57.9V55.9H136.615V57.9H138.615ZM138.615 70.4H136.615V72.4H138.615V70.4ZM139.215 70.4V72.4H140.451L141.004 71.2944L139.215 70.4ZM140.515 68.5L142.01 69.8287L142.028 69.8087L142.045 69.7883L140.515 68.5ZM142.365 66.85L141.291 65.1627L141.274 65.1741L141.256 65.1859L142.365 66.85ZM144.815 65.75L145.383 67.6676L145.416 67.658L145.448 67.6474L144.815 65.75ZM152.215 66.1L151.472 67.957L151.48 67.9601L151.488 67.9632L152.215 66.1ZM155.715 68.35L157.129 66.9358L157.129 66.9358L155.715 68.35ZM157.965 71.85L156.102 72.5771L156.11 72.5966L156.118 72.616L157.965 71.85ZM158.015 82.05L159.895 82.7335L159.897 82.7268L159.9 82.72L158.015 82.05ZM155.665 86L157.143 87.3475L157.153 87.3369L157.162 87.3261L155.665 86ZM141.115 88.8L141.831 86.9323L141.831 86.9323L141.115 88.8ZM137.165 86.3L138.579 84.8858L138.579 84.8858L137.165 86.3ZM134.715 82.55L132.836 83.2335L132.845 83.2595L132.855 83.2853L134.715 82.55ZM133.915 76.4V74.4H131.915V76.4H133.915ZM138.115 76.4H140.115V74.4H138.115V76.4ZM140.415 83.75L139.067 85.227L139.083 85.2422L139.1 85.2571L140.415 83.75ZM150.015 85.1L150.861 86.9124L150.874 86.9064L150.886 86.9003L150.015 85.1ZM152.565 83.15L151.034 81.8636L151.029 81.8696L152.565 83.15ZM154.115 80.3L156.024 80.8966L156.027 80.8883L156.029 80.88L154.115 80.3ZM154.065 73.7L152.19 74.3946L152.201 74.4248L152.213 74.4546L154.065 73.7ZM152.615 71.35L151.129 72.6879L151.147 72.708L151.165 72.7275L152.615 71.35ZM150.365 69.8L149.527 71.6159L149.568 71.635L149.611 71.6522L150.365 69.8ZM145.565 69.5L144.933 67.6026L144.916 67.6082L144.9 67.614L145.565 69.5ZM144.065 70.3L145.204 71.9444L145.245 71.9158L145.285 71.8852L144.065 70.3ZM142.965 71.35L141.365 70.15L141.332 70.1944L141.301 70.2406L142.965 71.35ZM142.415 72.5V74.5H143.943L144.345 73.0262L142.415 72.5ZM136.515 72.5V54H132.515V72.5H136.515ZM134.515 56H156.415V52H134.515V56ZM154.415 54V57.9H158.415V54H154.415ZM156.415 55.9H138.615V59.9H156.415V55.9ZM136.615 57.9V70.4H140.615V57.9H136.615ZM138.615 72.4H139.215V68.4H138.615V72.4ZM141.004 71.2944C141.253 70.7964 141.584 70.3075 142.01 69.8287L139.02 67.1713C138.379 67.8925 137.844 68.6703 137.426 69.5056L141.004 71.2944ZM142.045 69.7883C142.455 69.3018 142.929 68.8777 143.475 68.5141L141.256 65.1859C140.401 65.7557 139.642 66.4316 138.985 67.2117L142.045 69.7883ZM143.439 68.5373C144.003 68.1782 144.648 67.8856 145.383 67.6676L144.247 63.8324C143.183 64.1477 142.194 64.5885 141.291 65.1627L143.439 68.5373ZM145.448 67.6474C146.114 67.4252 146.897 67.3 147.815 67.3V63.3C146.534 63.3 145.316 63.4748 144.183 63.8526L145.448 67.6474ZM147.815 67.3C149.19 67.3 150.401 67.5283 151.472 67.957L152.958 64.243C151.363 63.605 149.641 63.3 147.815 63.3V67.3ZM151.488 67.9632C152.616 68.4034 153.544 69.0071 154.301 69.7642L157.129 66.9358C155.953 65.7596 154.548 64.8633 152.942 64.2368L151.488 67.9632ZM154.301 69.7642C155.058 70.5213 155.662 71.4489 156.102 72.5771L159.828 71.1229C159.202 69.5177 158.306 68.112 157.129 66.9358L154.301 69.7642ZM156.118 72.616C156.572 73.711 156.815 74.9631 156.815 76.4H160.815C160.815 74.5036 160.492 72.7223 159.813 71.084L156.118 72.616ZM156.815 76.4V77.3H160.815V76.4H156.815ZM156.815 77.3C156.815 78.7492 156.584 80.105 156.131 81.38L159.9 82.72C160.513 80.9949 160.815 79.1841 160.815 77.3H156.815ZM156.136 81.3665C155.688 82.5972 155.034 83.6958 154.168 84.6739L157.162 87.3261C158.363 85.9709 159.276 84.4362 159.895 82.7335L156.136 81.3665ZM154.187 84.6525C153.361 85.5593 152.316 86.3014 151.018 86.8659L152.613 90.5341C154.381 89.7653 155.903 88.7074 157.143 87.3475L154.187 84.6525ZM151.018 86.8659C149.78 87.4039 148.294 87.7 146.515 87.7V91.7C148.737 91.7 150.783 91.3295 152.613 90.5341L151.018 86.8659ZM146.515 87.7C144.676 87.7 143.126 87.4285 141.831 86.9323L140.4 90.6677C142.238 91.3715 144.288 91.7 146.515 91.7V87.7ZM141.831 86.9323C140.497 86.4214 139.426 85.7327 138.579 84.8858L135.751 87.7142C137.037 89.0006 138.601 89.9786 140.4 90.6677L141.831 86.9323ZM138.579 84.8858C137.71 84.0168 137.043 82.9993 136.575 81.8147L132.855 83.2853C133.52 84.9674 134.487 86.4498 135.751 87.7142L138.579 84.8858ZM136.595 81.8665C136.148 80.6377 135.915 79.2877 135.915 77.8H131.915C131.915 79.7123 132.216 81.529 132.836 83.2335L136.595 81.8665ZM135.915 77.8V76.4H131.915V77.8H135.915ZM133.915 78.4H138.115V74.4H133.915V78.4ZM136.115 76.4V77.5H140.115V76.4H136.115ZM136.115 77.5C136.115 80.6327 136.993 83.3335 139.067 85.227L141.764 82.273C140.771 81.3665 140.115 79.9006 140.115 77.5H136.115ZM139.1 85.2571C141.102 87.0031 143.634 87.8 146.515 87.8V83.8C144.396 83.8 142.862 83.2302 141.73 82.2429L139.1 85.2571ZM146.515 87.8C148.081 87.8 149.547 87.5256 150.861 86.9124L149.169 83.2876C148.484 83.6077 147.616 83.8 146.515 83.8V87.8ZM150.886 86.9003C152.149 86.2891 153.235 85.4706 154.102 84.4304L151.029 81.8696C150.562 82.4294 149.948 82.9109 149.144 83.2997L150.886 86.9003ZM154.097 84.4364C154.972 83.3949 155.614 82.2089 156.024 80.8966L152.206 79.7034C151.95 80.5244 151.559 81.2385 151.034 81.8636L154.097 84.4364ZM156.029 80.88C156.42 79.5891 156.615 78.2602 156.615 76.9H152.615C152.615 77.8731 152.477 78.8109 152.201 79.72L156.029 80.88ZM156.615 76.9V76.6H152.615V76.9H156.615ZM156.615 76.6C156.615 75.3245 156.388 74.0999 155.917 72.9454L152.213 74.4546C152.476 75.1001 152.615 75.8088 152.615 76.6H156.615ZM155.941 73.0054C155.517 71.8626 154.893 70.8442 154.065 69.9725L151.165 72.7275C151.604 73.1891 151.946 73.7374 152.19 74.3946L155.941 73.0054ZM154.102 70.0121C153.283 69.1026 152.276 68.4187 151.12 67.9478L149.611 71.6522C150.255 71.9146 150.747 72.2641 151.129 72.6879L154.102 70.0121ZM151.203 67.9841C150.053 67.453 148.814 67.2 147.515 67.2V71.2C148.283 71.2 148.944 71.347 149.527 71.6159L151.203 67.9841ZM147.515 67.2C146.623 67.2 145.757 67.3278 144.933 67.6026L146.198 71.3974C146.573 71.2722 147.007 71.2 147.515 71.2V67.2ZM144.9 67.614C144.153 67.8774 143.462 68.2404 142.846 68.7148L145.285 71.8852C145.535 71.6929 145.844 71.5226 146.231 71.386L144.9 67.614ZM142.927 68.6556C142.326 69.0713 141.801 69.5689 141.365 70.15L144.565 72.55C144.729 72.3311 144.937 72.1287 145.204 71.9444L142.927 68.6556ZM141.301 70.2406C140.945 70.7743 140.655 71.3531 140.486 71.9738L144.345 73.0262C144.376 72.9135 144.452 72.7257 144.629 72.4594L141.301 70.2406ZM142.415 70.5H134.515V74.5H142.415V70.5Z" fill="#33E602"/>
<path d="M147.3 208L147.3 210L148.491 210L149.058 208.953L147.3 208ZM139.15 208L137.15 208L137.15 210L139.15 210L139.15 208ZM139.15 183.5L141.15 183.5L141.15 181.5L139.15 181.5L139.15 183.5ZM133.75 183.5L131.75 183.5L131.75 185.5L133.75 185.5L133.75 183.5ZM133.75 179.6L133.75 177.6L131.75 177.6L131.75 179.6L133.75 179.6ZM139.15 179.6L139.15 181.6L141.15 181.6L141.15 179.6L139.15 179.6ZM139.15 173L139.15 171L137.15 171L137.15 173L139.15 173ZM143.35 173L145.35 173L145.35 171L143.35 171L143.35 173ZM143.35 179.6L141.35 179.6L141.35 181.6L143.35 181.6L143.35 179.6ZM159.55 179.6L161.55 179.6L161.55 177.6L159.55 177.6L159.55 179.6ZM159.55 185.4L161.308 186.353L161.55 185.907L161.55 185.4L159.55 185.4ZM155.95 184.1L157.708 185.054L157.95 184.608L157.95 184.1L155.95 184.1ZM155.95 183.5L157.95 183.5L157.95 181.5L155.95 181.5L155.95 183.5ZM143.35 183.5L143.35 181.5L141.35 181.5L141.35 183.5L143.35 183.5ZM143.35 206.2L141.35 206.2L141.35 208.2L143.35 208.2L143.35 206.2ZM143.95 206.2L143.95 208.2L145.14 208.2L145.708 207.154L143.95 206.2ZM147.3 206L139.15 206L139.15 210L147.3 210L147.3 206ZM141.15 208L141.15 183.5L137.15 183.5L137.15 208L141.15 208ZM139.15 181.5L133.75 181.5L133.75 185.5L139.15 185.5L139.15 181.5ZM135.75 183.5L135.75 179.6L131.75 179.6L131.75 183.5L135.75 183.5ZM133.75 181.6L139.15 181.6L139.15 177.6L133.75 177.6L133.75 181.6ZM141.15 179.6L141.15 173L137.15 173L137.15 179.6L141.15 179.6ZM139.15 175L143.35 175L143.35 171L139.15 171L139.15 175ZM141.35 173L141.35 179.6L145.35 179.6L145.35 173L141.35 173ZM143.35 181.6L159.55 181.6L159.55 177.6L143.35 177.6L143.35 181.6ZM157.55 179.6L157.55 185.4L161.55 185.4L161.55 179.6L157.55 179.6ZM157.792 184.447L145.542 207.047L149.058 208.953L161.308 186.353L157.792 184.447ZM157.95 184.1L157.95 183.5L153.95 183.5L153.95 184.1L157.95 184.1ZM155.95 181.5L143.35 181.5L143.35 185.5L155.95 185.5L155.95 181.5ZM141.35 183.5L141.35 206.2L145.35 206.2L145.35 183.5L141.35 183.5ZM143.35 208.2L143.95 208.2L143.95 204.2L143.35 204.2L143.35 208.2ZM145.708 207.154L157.708 185.054L154.192 183.146L142.192 205.246L145.708 207.154ZM127.485 189.5L129.485 189.5L129.485 187.5L127.485 187.5L127.485 189.5ZM127.485 208L127.485 210L129.485 210L129.485 208L127.485 208ZM105.585 208L103.585 208L103.585 210L105.585 210L105.585 208ZM105.585 204.1L105.585 202.1L103.585 202.1L103.585 204.1L105.585 204.1ZM123.385 204.1L123.385 206.1L125.385 206.1L125.385 204.1L123.385 204.1ZM123.385 191.6L125.385 191.6L125.385 189.6L123.385 189.6L123.385 191.6ZM122.785 191.6L122.785 189.6L121.549 189.6L120.996 190.706L122.785 191.6ZM121.485 193.5L119.99 192.171L119.972 192.191L119.955 192.212L121.485 193.5ZM119.635 195.15L120.709 196.837L120.726 196.826L120.744 196.814L119.635 195.15ZM117.185 196.25L116.617 194.332L116.584 194.342L116.552 194.353L117.185 196.25ZM109.785 195.9L110.528 194.043L110.52 194.04L110.512 194.037L109.785 195.9ZM106.285 193.65L104.871 195.064L104.871 195.064L106.285 193.65ZM104.035 190.15L105.898 189.423L105.89 189.403L105.882 189.384L104.035 190.15ZM103.985 179.95L102.105 179.267L102.103 179.273L102.1 179.28L103.985 179.95ZM106.335 176L104.857 174.652L104.847 174.663L104.838 174.674L106.335 176ZM120.885 173.2L120.169 175.068L120.169 175.068L120.885 173.2ZM124.835 175.7L123.421 177.114L123.421 177.114L124.835 175.7ZM127.285 179.45L129.164 178.767L129.155 178.74L129.145 178.715L127.285 179.45ZM128.085 185.6L128.085 187.6L130.085 187.6L130.085 185.6L128.085 185.6ZM123.885 185.6L121.885 185.6L121.885 187.6L123.885 187.6L123.885 185.6ZM121.585 178.25L122.933 176.773L122.917 176.758L122.9 176.743L121.585 178.25ZM111.985 176.9L111.139 175.088L111.126 175.094L111.114 175.1L111.985 176.9ZM109.435 178.85L110.966 180.136L110.971 180.13L109.435 178.85ZM107.885 181.7L105.976 181.103L105.973 181.112L105.971 181.12L107.885 181.7ZM107.935 188.3L109.81 187.605L109.799 187.575L109.787 187.545L107.935 188.3ZM109.385 190.65L110.871 189.312L110.853 189.292L110.835 189.272L109.385 190.65ZM111.635 192.2L112.473 190.384L112.432 190.365L112.389 190.348L111.635 192.2ZM116.435 192.5L117.067 194.397L117.084 194.392L117.1 194.386L116.435 192.5ZM117.935 191.7L116.796 190.056L116.755 190.084L116.715 190.115L117.935 191.7ZM119.035 190.65L120.635 191.85L120.668 191.806L120.699 191.759L119.035 190.65ZM119.585 189.5L119.585 187.5L118.057 187.5L117.655 188.974L119.585 189.5ZM125.485 189.5L125.485 208L129.485 208L129.485 189.5L125.485 189.5ZM127.485 206L105.585 206L105.585 210L127.485 210L127.485 206ZM107.585 208L107.585 204.1L103.585 204.1L103.585 208L107.585 208ZM105.585 206.1L123.385 206.1L123.385 202.1L105.585 202.1L105.585 206.1ZM125.385 204.1L125.385 191.6L121.385 191.6L121.385 204.1L125.385 204.1ZM123.385 189.6L122.785 189.6L122.785 193.6L123.385 193.6L123.385 189.6ZM120.996 190.706C120.747 191.204 120.416 191.692 119.99 192.171L122.98 194.829C123.621 194.108 124.156 193.33 124.574 192.494L120.996 190.706ZM119.955 192.212C119.545 192.698 119.071 193.122 118.525 193.486L120.744 196.814C121.599 196.244 122.358 195.568 123.015 194.788L119.955 192.212ZM118.561 193.463C117.997 193.822 117.352 194.114 116.617 194.332L117.753 198.168C118.817 197.852 119.806 197.412 120.709 196.837L118.561 193.463ZM116.552 194.353C115.886 194.575 115.103 194.7 114.185 194.7L114.185 198.7C115.466 198.7 116.684 198.525 117.817 198.147L116.552 194.353ZM114.185 194.7C112.81 194.7 111.599 194.472 110.528 194.043L109.042 197.757C110.637 198.395 112.359 198.7 114.185 198.7L114.185 194.7ZM110.512 194.037C109.384 193.597 108.456 192.993 107.699 192.236L104.871 195.064C106.047 196.24 107.453 197.137 109.058 197.763L110.512 194.037ZM107.699 192.236C106.942 191.479 106.338 190.551 105.898 189.423L102.172 190.877C102.798 192.482 103.694 193.888 104.871 195.064L107.699 192.236ZM105.882 189.384C105.428 188.289 105.185 187.037 105.185 185.6L101.185 185.6C101.185 187.496 101.508 189.278 102.187 190.916L105.882 189.384ZM105.185 185.6L105.185 184.7L101.185 184.7L101.185 185.6L105.185 185.6ZM105.185 184.7C105.185 183.251 105.416 181.895 105.869 180.62L102.1 179.28C101.487 181.005 101.185 182.816 101.185 184.7L105.185 184.7ZM105.864 180.633C106.312 179.403 106.966 178.304 107.832 177.326L104.838 174.674C103.637 176.029 102.724 177.564 102.105 179.267L105.864 180.633ZM107.813 177.348C108.639 176.441 109.684 175.699 110.982 175.134L109.387 171.466C107.619 172.235 106.097 173.293 104.857 174.652L107.813 177.348ZM110.982 175.134C112.22 174.596 113.706 174.3 115.485 174.3L115.485 170.3C113.263 170.3 111.217 170.671 109.387 171.466L110.982 175.134ZM115.485 174.3C117.324 174.3 118.874 174.572 120.169 175.068L121.6 171.332C119.762 170.628 117.712 170.3 115.485 170.3L115.485 174.3ZM120.169 175.068C121.503 175.579 122.574 176.267 123.421 177.114L126.249 174.286C124.963 172.999 123.399 172.021 121.6 171.332L120.169 175.068ZM123.421 177.114C124.29 177.983 124.957 179.001 125.425 180.185L129.145 178.715C128.48 177.033 127.513 175.55 126.249 174.286L123.421 177.114ZM125.405 180.133C125.852 181.362 126.085 182.712 126.085 184.2L130.085 184.2C130.085 182.288 129.784 180.471 129.164 178.767L125.405 180.133ZM126.085 184.2L126.085 185.6L130.085 185.6L130.085 184.2L126.085 184.2ZM128.085 183.6L123.885 183.6L123.885 187.6L128.085 187.6L128.085 183.6ZM125.885 185.6L125.885 184.5L121.885 184.5L121.885 185.6L125.885 185.6ZM125.885 184.5C125.885 181.367 125.007 178.666 122.933 176.773L120.236 179.727C121.229 180.634 121.885 182.099 121.885 184.5L125.885 184.5ZM122.9 176.743C120.898 174.997 118.366 174.2 115.485 174.2L115.485 178.2C117.604 178.2 119.138 178.77 120.27 179.757L122.9 176.743ZM115.485 174.2C113.919 174.2 112.453 174.474 111.139 175.088L112.831 178.712C113.516 178.392 114.384 178.2 115.485 178.2L115.485 174.2ZM111.114 175.1C109.851 175.711 108.765 176.529 107.898 177.57L110.971 180.13C111.438 179.571 112.052 179.089 112.856 178.7L111.114 175.1ZM107.903 177.564C107.028 178.605 106.386 179.791 105.976 181.103L109.794 182.297C110.05 181.476 110.441 180.762 110.966 180.136L107.903 177.564ZM105.971 181.12C105.58 182.411 105.385 183.74 105.385 185.1L109.385 185.1C109.385 184.127 109.523 183.189 109.799 182.28L105.971 181.12ZM105.385 185.1L105.385 185.4L109.385 185.4L109.385 185.1L105.385 185.1ZM105.385 185.4C105.385 186.675 105.612 187.9 106.083 189.055L109.787 187.545C109.524 186.9 109.385 186.191 109.385 185.4L105.385 185.4ZM106.059 188.995C106.483 190.137 107.107 191.156 107.935 192.027L110.835 189.272C110.396 188.811 110.054 188.263 109.81 187.605L106.059 188.995ZM107.898 191.988C108.717 192.897 109.724 193.581 110.88 194.052L112.389 190.348C111.745 190.085 111.253 189.736 110.871 189.312L107.898 191.988ZM110.797 194.016C111.947 194.547 113.186 194.8 114.485 194.8L114.485 190.8C113.717 190.8 113.056 190.653 112.473 190.384L110.797 194.016ZM114.485 194.8C115.377 194.8 116.243 194.672 117.067 194.397L115.802 190.603C115.427 190.728 114.993 190.8 114.485 190.8L114.485 194.8ZM117.1 194.386C117.847 194.123 118.538 193.76 119.154 193.285L116.715 190.115C116.465 190.307 116.156 190.477 115.769 190.614L117.1 194.386ZM119.073 193.344C119.674 192.929 120.199 192.431 120.635 191.85L117.435 189.45C117.271 189.669 117.063 189.871 116.796 190.056L119.073 193.344ZM120.699 191.759C121.055 191.226 121.345 190.647 121.514 190.026L117.655 188.974C117.625 189.086 117.548 189.274 117.371 189.541L120.699 191.759ZM119.585 191.5L127.485 191.5L127.485 187.5L119.585 187.5L119.585 191.5Z" fill="#33E602"/>
</svg>
